<svg xmlns="http://www.w3.org/2000/svg" xmlns:xlink="http://www.w3.org/1999/xlink" width="32" height="32" viewBox="0 0 32 32"><defs><path id="lvh7a" d="M1101.123 41.762h-2.009v-2.226h4.78V50.45h-2.771zm13.187.591c0 .95-.514 1.79-1.37 2.258 1.198.498 1.946 1.54 1.946 2.755 0 1.962-1.744 3.207-4.469 3.207-2.724 0-4.468-1.23-4.468-3.16 0-1.245.81-2.304 2.07-2.802-.918-.514-1.51-1.386-1.51-2.335 0-1.745 1.526-2.85 3.893-2.85 2.397 0 3.908 1.137 3.908 2.927zm-5.746 4.78c0 .918.654 1.432 1.853 1.432 1.2 0 1.869-.498 1.869-1.431 0-.904-.67-1.418-1.869-1.418-1.199 0-1.853.514-1.853 1.418zm.28-4.624c0 .779.561 1.214 1.573 1.214s1.573-.436 1.573-1.214c0-.81-.56-1.262-1.573-1.262-1.012 0-1.572.453-1.572 1.262zm10.653-1.742h2.936c.376 1.373.567 2.792.567 4.233 0 8.822-7.178 16-16 16s-16-7.178-16-16c0-8.823 7.178-16 16-16 1.441 0 2.86.191 4.233.568v2.935a13.129 13.129 0 0 0-4.233-.694c-7.274 0-13.192 5.917-13.192 13.19 0 7.275 5.918 13.192 13.192 13.192s13.192-5.917 13.192-13.191c0-1.451-.234-2.873-.695-4.233zm2.27-7.475v2.206h-3.068v3.068h-2.206v-3.068h-3.05v-2.206h3.05v-3.068h2.206v3.068z"/></defs><g><g transform="translate(-1091 -29)"><use fill="#45b9bd" xlink:href="#lvh7a"/></g></g></svg>