<svg xmlns="http://www.w3.org/2000/svg" xmlns:xlink="http://www.w3.org/1999/xlink" width="31" height="32" viewBox="0 0 31 32"><defs><path id="tzwka" d="M1603 34a3 3 0 0 1 3-3h4v-2a1 1 0 0 1 1-1h1a1 1 0 0 1 1 1v2h11v-2a1 1 0 0 1 1-1h1a1 1 0 0 1 1 1v2h4a3 3 0 0 1 3 3v23a3 3 0 0 1-3 3h-25a3 3 0 0 1-3-3zm3 20a3 3 0 0 0 3 3h19a3 3 0 0 0 3-3V37a3 3 0 0 0-3-3h-19a3 3 0 0 0-3 3zm4-15a1 1 0 0 1 1-1h1a1 1 0 0 1 1 1v1a1 1 0 0 1-1 1h-1a1 1 0 0 1-1-1zm14 0a1 1 0 0 1 1-1h1a1 1 0 0 1 1 1v1a1 1 0 0 1-1 1h-1a1 1 0 0 1-1-1zm-7 0a1 1 0 0 1 1-1h1a1 1 0 0 1 1 1v1a1 1 0 0 1-1 1h-1a1 1 0 0 1-1-1zm-7 6a1 1 0 0 1 1-1h1a1 1 0 0 1 1 1v1a1 1 0 0 1-1 1h-1a1 1 0 0 1-1-1zm14 0a1 1 0 0 1 1-1h1a1 1 0 0 1 1 1v1a1 1 0 0 1-1 1h-1a1 1 0 0 1-1-1zm-7 0a1 1 0 0 1 1-1h1a1 1 0 0 1 1 1v1a1 1 0 0 1-1 1h-1a1 1 0 0 1-1-1zm-7 6a1 1 0 0 1 1-1h1a1 1 0 0 1 1 1v1a1 1 0 0 1-1 1h-1a1 1 0 0 1-1-1zm14 0a1 1 0 0 1 1-1h1a1 1 0 0 1 1 1v1a1 1 0 0 1-1 1h-1a1 1 0 0 1-1-1zm-7 0a1 1 0 0 1 1-1h1a1 1 0 0 1 1 1v1a1 1 0 0 1-1 1h-1a1 1 0 0 1-1-1z"/></defs><g><g transform="translate(-1603 -28)"><use fill="#45b9bd" xlink:href="#tzwka"/></g></g></svg>