<svg xmlns="http://www.w3.org/2000/svg" xmlns:xlink="http://www.w3.org/1999/xlink" width="71" height="72" viewBox="0 0 71 72"><defs><path id="u0hja" d="M1714.427 636.254l-1.03-1.408a4.438 4.438 0 0 1-.042-5.168l1.002-1.42a4.435 4.435 0 0 0-1.53-6.464l-1.532-.823a4.415 4.415 0 0 1-2.269-4.639l.292-1.713c.446-2.619-1.517-5.043-4.176-5.156l-1.74-.069a4.44 4.44 0 0 1-4.064-3.19l-.488-1.674a4.411 4.411 0 0 0-6-2.826l-1.6.684a4.411 4.411 0 0 1-5.039-1.116l-1.155-1.296a4.412 4.412 0 0 0-6.627.056l-1.14 1.31a4.424 4.424 0 0 1-5.026 1.184l-1.615-.67c-2.464-1.014-5.248.363-5.958 2.926l-.46 1.687a4.392 4.392 0 0 1-4.008 3.245l-1.74.098a4.423 4.423 0 0 0-4.093 5.223l.32 1.714a4.42 4.42 0 0 1-2.199 4.668l-1.517.85c-2.325 1.295-2.993 4.333-1.42 6.476l1.03 1.408a4.439 4.439 0 0 1 .042 5.169l-1.003 1.422a4.434 4.434 0 0 0 1.532 6.462l1.53.823a4.416 4.416 0 0 1 2.27 4.637l-.292 1.715c-.446 2.62 1.517 5.043 4.176 5.154l1.74.07a4.438 4.438 0 0 1 4.064 3.19l.488 1.673a4.413 4.413 0 0 0 6 2.83l1.6-.685a4.411 4.411 0 0 1 5.04 1.114l1.155 1.297c1.781 1.978 4.886 1.963 6.626-.057l1.141-1.31a4.426 4.426 0 0 1 5.025-1.183l1.615.668c2.464 1.018 5.248-.363 5.958-2.927l.46-1.684a4.398 4.398 0 0 1 4.008-3.246l1.74-.097a4.422 4.422 0 0 0 4.093-5.224l-.32-1.714a4.417 4.417 0 0 1 2.199-4.667l1.517-.849c2.325-1.282 2.993-4.32 1.42-6.478z"/></defs><g><g transform="translate(-1646 -596)"><use fill="transparent" xlink:href="#u0hja"/><use fill="#fff" fill-opacity="0" stroke="#45b9bd" stroke-linecap="round" stroke-linejoin="round" stroke-miterlimit="50" stroke-width="3" xlink:href="#u0hja"/></g></g></svg>