<svg xmlns="http://www.w3.org/2000/svg" xmlns:xlink="http://www.w3.org/1999/xlink" width="21" height="24" viewBox="0 0 21 24"><defs><path id="qpiua" d="M665.364 409.156c.444.56.636 1.185.56 1.805-.076.614-.41 1.177-.969 1.631-.242.199-.489.388-.73.565-.352.264-.688.514-.986.793-.007.013-.017.016-.023.024-.863.73-1.884 1.026-3.04.882-.1-.011-.21-.03-.315-.047-1.703-.319-3.16-1.151-4.244-1.833a23.702 23.702 0 0 1-7.088-7.076c-1.54-2.386-2.503-4.55-3.045-6.829-.22-.928-.484-2.337-.184-3.78a3.67 3.67 0 0 1 1.371-2.181l1.913-1.503.01-.009c.56-.416 1.182-.6 1.793-.525.61.075 1.16.4 1.586.937.288.342.564.698.827 1.045.13.177.27.357.407.53l1.198 1.528c.922 1.174.755 2.53-.425 3.449-.157.122-.315.25-.473.37-.416.33-.844.673-1.3.996.221.71.56 1.426 1.089 2.288 1.096 1.736 2.292 3.126 3.658 4.241.134.109.293.217.463.327.117.08.239.161.36.247l1.775-1.377c.568-.443 1.19-.633 1.806-.56.621.076 1.173.42 1.597.981zm-1.077.825l-2.42-3.085-.008-.01c-.134-.189-.365-.413-.676-.453-.315-.036-.61.135-.801.284l-1.922 1.493c-.096.076-.388.306-.803.253a1.107 1.107 0 0 1-.48-.185c-.02-.011-.038-.031-.056-.043-.134-.107-.294-.212-.463-.325a6.718 6.718 0 0 1-.575-.408c-1.481-1.207-2.775-2.707-3.947-4.572l-.005-.006c-.642-1.054-1.043-1.922-1.292-2.823a11.015 11.015 0 0 0-.01-.047c-.055-.296-.083-.723.4-1.102.006-.009.017-.013.028-.021.483-.335.933-.686 1.406-1.06.163-.124.32-.252.483-.38.596-.462.656-.951.191-1.544l-1.199-1.526c-.14-.186-.28-.364-.415-.542-.267-.352-.521-.682-.791-1.001l-.013-.019c-.14-.178-.373-.401-.688-.437-.255-.031-.53.06-.805.26l-1.916 1.49c-.466.362-.75.82-.873 1.395-.187.905-.136 1.89.176 3.19.505 2.128 1.413 4.16 2.867 6.418 1.764 2.71 4.012 4.953 6.676 6.665.975.62 2.285 1.366 3.76 1.644.075.015.155.024.23.033.78.096 1.407-.084 1.98-.563.354-.325.725-.609 1.088-.877.241-.184.465-.35.685-.534-.005.003-.004 0 0 0 .576-.465.64-.99.188-1.562z"/></defs><g><g transform="translate(-645 -391)"><use fill="#3bbbbf" xlink:href="#qpiua"/></g></g></svg>