<svg xmlns="http://www.w3.org/2000/svg" xmlns:xlink="http://www.w3.org/1999/xlink" width="19" height="23" viewBox="0 0 19 23"><defs><path id="iy6oa" d="M652.165 311.94c-1.779-2.068-1.483-5.612-1.45-5.95.115-2.557 1.298-3.77 2.268-4.339.966-.567 1.974-.653 2.487-.653h.079c.933.022 1.77.25 2.486.673.961.568 2.126 1.78 2.242 4.32.032.337.328 3.881-1.452 5.95-.808.936-1.904 1.427-3.258 1.452h-.148c-1.354-.025-2.45-.516-3.254-1.452zm.93-.854c.577.677 1.358 1.01 2.375 1.02h.046c1.022-.01 1.798-.343 2.38-1.02 1.47-1.704 1.147-4.943 1.142-4.978-.005-.009-.005-.024-.005-.037-.143-3.23-2.264-3.753-3.512-3.78h-.056c-1.007 0-3.36.367-3.512 3.78 0 .009-.005.023-.005.037-.004.03-.319 3.282 1.147 4.978zm11.674 10.337a.623.623 0 0 1-.24.299c-.14.09-3.462 2.277-9.022 2.277-5.56 0-8.883-2.182-9.022-2.277a.598.598 0 0 1-.24-.299c-.245-.64-.24-1.911-.236-2.158v-.014c.005-.038.005-.075.005-.119.028-.939.088-3.144 2.094-3.853.013-.005.027-.012.046-.016 2.093-.549 3.817-1.785 3.836-1.8a.611.611 0 0 1 .869.159c.198.29.13.69-.153.893-.078.052-1.918 1.378-4.22 1.987-1.076.396-1.197 1.582-1.229 2.666 0 .045-.004.083-.004.121-.01.428.023 1.092.097 1.47.753.44 3.706 1.958 8.152 1.958 4.465 0 7.4-1.513 8.149-1.953.073-.378.101-1.042.097-1.47-.005-.039-.005-.078-.005-.118-.033-1.087-.153-2.273-1.23-2.67-2.301-.61-4.14-1.93-4.22-1.986a.652.652 0 0 1-.152-.893.61.61 0 0 1 .87-.158c.018.014 1.75 1.252 3.835 1.798.014.007.033.012.047.016 2.005.705 2.065 2.91 2.093 3.852 0 .044.005.081.005.12v.015c.004.247.009 1.519-.222 2.153z"/></defs><g><g transform="translate(-646 -301)"><use fill="#3bbbbf" xlink:href="#iy6oa"/></g></g></svg>